<mxfile host="app.diagrams.net" agent="Mozilla/5.0 (Windows NT 10.0; Win64; x64) AppleWebKit/537.36 (KHTML, like Gecko) Chrome/134.0.0.0 Safari/537.36" version="26.2.4">
  <diagram name="PÃ¡gina-1" id="RPQp--A655eXvm_YClmu">
    <mxGraphModel grid="1" page="1" gridSize="10" guides="1" tooltips="1" connect="1" arrows="1" fold="1" pageScale="1" pageWidth="827" pageHeight="1169" math="0" shadow="0">
      <root>
        <mxCell id="0" />
        <mxCell id="1" parent="0" />
        <mxCell id="eUhOfrQqI-4JkBRTTw8T-18" value="" style="edgeStyle=orthogonalEdgeStyle;rounded=0;orthogonalLoop=1;jettySize=auto;html=1;" edge="1" parent="1" source="GDdWoAbe8mLU-SRej0Ex-1" target="GDdWoAbe8mLU-SRej0Ex-6">
          <mxGeometry relative="1" as="geometry" />
        </mxCell>
        <mxCell id="GDdWoAbe8mLU-SRej0Ex-1" value="HABITACIONES" style="rounded=0;whiteSpace=wrap;html=1;" vertex="1" parent="1">
          <mxGeometry x="140" y="40" width="110" height="40" as="geometry" />
        </mxCell>
        <mxCell id="GDdWoAbe8mLU-SRej0Ex-2" value="CLIENTES" style="rounded=0;whiteSpace=wrap;html=1;" vertex="1" parent="1">
          <mxGeometry x="500" y="10" width="110" height="40" as="geometry" />
        </mxCell>
        <mxCell id="eUhOfrQqI-4JkBRTTw8T-8" value="" style="edgeStyle=orthogonalEdgeStyle;rounded=0;orthogonalLoop=1;jettySize=auto;html=1;" edge="1" parent="1" source="GDdWoAbe8mLU-SRej0Ex-3" target="eUhOfrQqI-4JkBRTTw8T-7">
          <mxGeometry relative="1" as="geometry" />
        </mxCell>
        <mxCell id="GDdWoAbe8mLU-SRej0Ex-3" value="RESERVAS" style="rounded=0;whiteSpace=wrap;html=1;" vertex="1" parent="1">
          <mxGeometry x="310" y="190" width="110" height="40" as="geometry" />
        </mxCell>
        <mxCell id="eUhOfrQqI-4JkBRTTw8T-21" style="edgeStyle=orthogonalEdgeStyle;rounded=0;orthogonalLoop=1;jettySize=auto;html=1;" edge="1" parent="1" source="GDdWoAbe8mLU-SRej0Ex-6" target="GDdWoAbe8mLU-SRej0Ex-3">
          <mxGeometry relative="1" as="geometry" />
        </mxCell>
        <mxCell id="GDdWoAbe8mLU-SRej0Ex-6" value="esta en" style="rhombus;whiteSpace=wrap;html=1;" vertex="1" parent="1">
          <mxGeometry x="160" y="190" width="70" height="40" as="geometry" />
        </mxCell>
        <mxCell id="eUhOfrQqI-4JkBRTTw8T-6" value="" style="edgeStyle=orthogonalEdgeStyle;rounded=0;orthogonalLoop=1;jettySize=auto;html=1;" edge="1" parent="1" source="eUhOfrQqI-4JkBRTTw8T-1" target="GDdWoAbe8mLU-SRej0Ex-1">
          <mxGeometry relative="1" as="geometry" />
        </mxCell>
        <mxCell id="eUhOfrQqI-4JkBRTTw8T-1" value="tiene" style="rhombus;whiteSpace=wrap;html=1;rounded=0;" vertex="1" parent="1">
          <mxGeometry x="165" y="-100" width="80" height="80" as="geometry" />
        </mxCell>
        <mxCell id="eUhOfrQqI-4JkBRTTw8T-5" value="" style="edgeStyle=orthogonalEdgeStyle;rounded=0;orthogonalLoop=1;jettySize=auto;html=1;" edge="1" parent="1" source="eUhOfrQqI-4JkBRTTw8T-3" target="eUhOfrQqI-4JkBRTTw8T-1">
          <mxGeometry relative="1" as="geometry" />
        </mxCell>
        <mxCell id="eUhOfrQqI-4JkBRTTw8T-3" value="Hotel" style="whiteSpace=wrap;html=1;rounded=0;" vertex="1" parent="1">
          <mxGeometry x="145" y="-250" width="120" height="60" as="geometry" />
        </mxCell>
        <mxCell id="eUhOfrQqI-4JkBRTTw8T-9" style="edgeStyle=orthogonalEdgeStyle;rounded=0;orthogonalLoop=1;jettySize=auto;html=1;entryX=0.5;entryY=1;entryDx=0;entryDy=0;" edge="1" parent="1" source="eUhOfrQqI-4JkBRTTw8T-7" target="GDdWoAbe8mLU-SRej0Ex-2">
          <mxGeometry relative="1" as="geometry" />
        </mxCell>
        <mxCell id="eUhOfrQqI-4JkBRTTw8T-7" value="pertenece" style="rhombus;whiteSpace=wrap;html=1;rounded=0;" vertex="1" parent="1">
          <mxGeometry x="515" y="170" width="80" height="80" as="geometry" />
        </mxCell>
        <mxCell id="eUhOfrQqI-4JkBRTTw8T-11" value="N:1" style="text;html=1;align=center;verticalAlign=middle;whiteSpace=wrap;rounded=0;" vertex="1" parent="1">
          <mxGeometry x="230" y="-75" width="60" height="30" as="geometry" />
        </mxCell>
        <mxCell id="eUhOfrQqI-4JkBRTTw8T-12" value="N:M" style="text;html=1;align=center;verticalAlign=middle;whiteSpace=wrap;rounded=0;" vertex="1" parent="1">
          <mxGeometry x="165" y="230" width="60" height="30" as="geometry" />
        </mxCell>
        <mxCell id="eUhOfrQqI-4JkBRTTw8T-13" value="1:N" style="text;html=1;align=center;verticalAlign=middle;whiteSpace=wrap;rounded=0;" vertex="1" parent="1">
          <mxGeometry x="525" y="250" width="60" height="30" as="geometry" />
        </mxCell>
        <mxCell id="eUhOfrQqI-4JkBRTTw8T-14" value="&lt;u&gt;Cuit&lt;/u&gt;&lt;div&gt;&lt;u&gt;ID_hotel&lt;/u&gt;&lt;/div&gt;&lt;div&gt;nombre&lt;/div&gt;&lt;div&gt;direccion&lt;/div&gt;&lt;div&gt;telefono&lt;/div&gt;&lt;div&gt;mail&lt;/div&gt;&lt;div&gt;categoria&lt;/div&gt;" style="ellipse;whiteSpace=wrap;html=1;" vertex="1" parent="1">
          <mxGeometry x="60" y="-320" width="130" height="110" as="geometry" />
        </mxCell>
        <mxCell id="eUhOfrQqI-4JkBRTTw8T-16" value="&lt;u&gt;ID_habitacion&lt;/u&gt;&lt;br&gt;&lt;div&gt;&lt;u&gt;ID_hotel&lt;/u&gt;&lt;/div&gt;&lt;div&gt;precio&lt;/div&gt;&lt;div&gt;numero&lt;/div&gt;&lt;div&gt;estado&lt;/div&gt;&lt;div&gt;tipo_habitacion&lt;/div&gt;" style="ellipse;whiteSpace=wrap;html=1;" vertex="1" parent="1">
          <mxGeometry x="25" y="-40" width="135" height="120" as="geometry" />
        </mxCell>
        <mxCell id="eUhOfrQqI-4JkBRTTw8T-17" value="&lt;u&gt;ID_habitacion&lt;/u&gt;&lt;br&gt;&lt;div&gt;&lt;u&gt;ID_reserva&lt;/u&gt;&lt;/div&gt;&lt;div&gt;fecha_entrada&lt;/div&gt;&lt;div&gt;fecha_salida&lt;/div&gt;&lt;div&gt;estado&lt;/div&gt;&lt;div&gt;&lt;u&gt;ID_client&lt;/u&gt;e&lt;/div&gt;" style="ellipse;whiteSpace=wrap;html=1;" vertex="1" parent="1">
          <mxGeometry x="340" y="220" width="135" height="120" as="geometry" />
        </mxCell>
        <mxCell id="eUhOfrQqI-4JkBRTTw8T-19" value="&lt;u&gt;DNI&lt;/u&gt;&lt;div&gt;&lt;u&gt;ID_cliente&lt;/u&gt;&lt;/div&gt;&lt;div&gt;nombre&lt;/div&gt;&lt;div&gt;apellido&lt;/div&gt;&lt;div&gt;mail&lt;/div&gt;&lt;div&gt;telefono&lt;/div&gt;" style="ellipse;whiteSpace=wrap;html=1;" vertex="1" parent="1">
          <mxGeometry x="585" y="-60" width="135" height="120" as="geometry" />
        </mxCell>
      </root>
    </mxGraphModel>
  </diagram>
</mxfile>
